<svg xmlns="http://www.w3.org/2000/svg" xmlns:xlink="http://www.w3.org/1999/xlink" width="500" zoomAndPan="magnify" viewBox="0 0 375 374.999991" height="500" preserveAspectRatio="xMidYMid meet" version="1.2"><defs><clipPath id="1eaed87b75"><path d="M 187.5 116.152344 L 300 116.152344 L 300 228.652344 L 187.5 228.652344 Z M 187.5 116.152344 "/></clipPath></defs><g id="be4bb5e4d6"><path style=" stroke:none;fill-rule:nonzero;fill:#3ec82d;fill-opacity:1;" d="M 142.789062 88.773438 C 147.738281 88.773438 151.753906 84.757812 151.753906 79.808594 L 151.753906 62.453125 C 151.753906 40.003906 170.042969 21.710938 192.566406 21.710938 C 215.085938 21.710938 233.375 40.003906 233.375 62.453125 L 233.375 79.808594 C 233.375 84.757812 237.394531 88.773438 242.339844 88.773438 C 247.289062 88.773438 251.308594 84.757812 251.308594 79.808594 L 251.308594 64.890625 C 251.308594 33.546875 227.78125 6.003906 196.4375 3.925781 C 162.371094 1.703125 133.824219 28.8125 133.824219 62.453125 L 133.824219 79.808594 C 133.824219 84.757812 137.839844 88.773438 142.789062 88.773438 Z M 142.789062 88.773438 "/><path style=" stroke:none;fill-rule:nonzero;fill:#00bf63;fill-opacity:1;" d="M 331.351562 321.875 L 311.625 130.015625 C 310.046875 114.738281 297.210938 103.191406 281.859375 103.191406 L 103.269531 103.191406 C 87.921875 103.191406 75.082031 114.808594 73.503906 130.015625 L 68.554688 177.78125 C 65.257812 209.84375 95.738281 234.875 126.507812 225.476562 L 143.21875 220.386719 C 162.226562 214.578125 183.457031 224.1875 190.917969 245.273438 C 193.5 252.589844 193.140625 260.621094 190.84375 268.082031 L 183.457031 292.179688 C 173.273438 325.460938 198.160156 359.097656 232.945312 359.097656 L 297.785156 359.097656 C 317.792969 359.027344 333.429688 341.742188 331.351562 321.875 Z M 331.351562 321.875 "/><path style=" stroke:none;fill-rule:nonzero;fill:#3ec82d;fill-opacity:1;" d="M 149.53125 240.898438 L 52.921875 270.378906 C 38.863281 274.679688 37.859375 294.1875 51.414062 299.925781 L 74.4375 309.609375 C 86.628906 314.773438 96.386719 324.457031 101.550781 336.722656 L 111.230469 359.746094 C 116.96875 373.300781 136.476562 372.296875 140.78125 358.238281 L 170.261719 261.628906 C 174.203125 248.933594 162.296875 237.027344 149.53125 240.898438 Z M 149.53125 240.898438 "/><g clip-rule="nonzero" clip-path="url(#1eaed87b75)"><path style=" stroke:none;fill-rule:nonzero;fill:#00bf63;fill-opacity:1;" d="M 187.5 116.152344 L 300 116.152344 L 300 228.652344 L 187.5 228.652344 Z M 187.5 116.152344 "/></g></g></svg>