<svg xmlns="http://www.w3.org/2000/svg" xmlns:xlink="http://www.w3.org/1999/xlink" width="240" zoomAndPan="magnify" viewBox="0 0 180 60" height="80" preserveAspectRatio="xMidYMid meet" version="1.2"><defs><clipPath id="7bd0e08667"><path d="M 6 17 L 46.984375 17 L 46.984375 57 L 6 57 Z M 6 17 "/></clipPath></defs><g id="e511c270f8"><path style=" stroke:none;fill-rule:nonzero;fill:#3ec82d;fill-opacity:1;" d="M 18 14.941406 C 18.753906 14.941406 19.363281 14.328125 19.363281 13.578125 L 19.363281 10.9375 C 19.363281 7.519531 22.148438 4.738281 25.574219 4.738281 C 29 4.738281 31.78125 7.519531 31.78125 10.9375 L 31.78125 13.578125 C 31.78125 14.328125 32.394531 14.941406 33.144531 14.941406 C 33.898438 14.941406 34.511719 14.328125 34.511719 13.578125 L 34.511719 11.308594 C 34.511719 6.539062 30.929688 2.347656 26.164062 2.03125 C 20.980469 1.695312 16.636719 5.820312 16.636719 10.9375 L 16.636719 13.578125 C 16.636719 14.328125 17.25 14.941406 18 14.941406 Z M 18 14.941406 "/><g clip-rule="nonzero" clip-path="url(#7bd0e08667)"><path style=" stroke:none;fill-rule:nonzero;fill:#00bf63;fill-opacity:1;" d="M 46.6875 50.402344 L 43.6875 21.214844 C 43.445312 18.890625 41.492188 17.132812 39.160156 17.132812 L 11.988281 17.132812 C 9.652344 17.132812 7.699219 18.902344 7.460938 21.214844 L 6.707031 28.480469 C 6.207031 33.359375 10.84375 37.167969 15.523438 35.738281 L 18.066406 34.964844 C 20.957031 34.078125 24.1875 35.542969 25.324219 38.75 C 25.714844 39.863281 25.660156 41.085938 25.3125 42.21875 L 24.1875 45.886719 C 22.636719 50.949219 26.425781 56.066406 31.714844 56.066406 L 41.582031 56.066406 C 44.625 56.054688 47.003906 53.425781 46.6875 50.402344 Z M 46.6875 50.402344 "/></g><path style=" stroke:none;fill-rule:nonzero;fill:#3ec82d;fill-opacity:1;" d="M 19.027344 38.082031 L 4.328125 42.566406 C 2.191406 43.222656 2.039062 46.191406 4.101562 47.0625 L 7.601562 48.535156 C 9.457031 49.320312 10.941406 50.796875 11.726562 52.660156 L 13.199219 56.164062 C 14.074219 58.226562 17.042969 58.074219 17.695312 55.933594 L 22.179688 41.238281 C 22.78125 39.304688 20.96875 37.496094 19.027344 38.082031 Z M 19.027344 38.082031 "/><g style="fill:#000000;fill-opacity:1;"><g transform="translate(47.888293, 42.395481)"><path style="stroke:none" d="M 13.90625 -14.65625 C 13.78125 -14.789062 13.539062 -14.96875 13.1875 -15.1875 C 12.84375 -15.414062 12.421875 -15.628906 11.921875 -15.828125 C 11.429688 -16.035156 10.894531 -16.21875 10.3125 -16.375 C 9.738281 -16.539062 9.15625 -16.625 8.5625 -16.625 C 7.519531 -16.625 6.734375 -16.425781 6.203125 -16.03125 C 5.671875 -15.644531 5.40625 -15.097656 5.40625 -14.390625 C 5.40625 -13.847656 5.570312 -13.414062 5.90625 -13.09375 C 6.238281 -12.78125 6.738281 -12.507812 7.40625 -12.28125 C 8.082031 -12.0625 8.925781 -11.820312 9.9375 -11.5625 C 11.238281 -11.238281 12.367188 -10.847656 13.328125 -10.390625 C 14.296875 -9.929688 15.035156 -9.332031 15.546875 -8.59375 C 16.054688 -7.863281 16.3125 -6.894531 16.3125 -5.6875 C 16.3125 -4.613281 16.113281 -3.695312 15.71875 -2.9375 C 15.332031 -2.1875 14.789062 -1.578125 14.09375 -1.109375 C 13.40625 -0.648438 12.625 -0.3125 11.75 -0.09375 C 10.875 0.113281 9.941406 0.21875 8.953125 0.21875 C 7.960938 0.21875 6.972656 0.117188 5.984375 -0.078125 C 4.992188 -0.285156 4.039062 -0.582031 3.125 -0.96875 C 2.21875 -1.351562 1.378906 -1.8125 0.609375 -2.34375 L 2.328125 -5.6875 C 2.492188 -5.507812 2.789062 -5.285156 3.21875 -5.015625 C 3.644531 -4.753906 4.164062 -4.488281 4.78125 -4.21875 C 5.394531 -3.945312 6.066406 -3.71875 6.796875 -3.53125 C 7.523438 -3.34375 8.265625 -3.25 9.015625 -3.25 C 10.054688 -3.25 10.847656 -3.425781 11.390625 -3.78125 C 11.929688 -4.132812 12.203125 -4.632812 12.203125 -5.28125 C 12.203125 -5.882812 11.984375 -6.351562 11.546875 -6.6875 C 11.117188 -7.019531 10.523438 -7.3125 9.765625 -7.5625 C 9.003906 -7.820312 8.097656 -8.097656 7.046875 -8.390625 C 5.796875 -8.742188 4.75 -9.140625 3.90625 -9.578125 C 3.070312 -10.023438 2.445312 -10.582031 2.03125 -11.25 C 1.625 -11.914062 1.421875 -12.753906 1.421875 -13.765625 C 1.421875 -15.128906 1.742188 -16.269531 2.390625 -17.1875 C 3.035156 -18.113281 3.90625 -18.816406 5 -19.296875 C 6.101562 -19.773438 7.328125 -20.015625 8.671875 -20.015625 C 9.609375 -20.015625 10.488281 -19.910156 11.3125 -19.703125 C 12.144531 -19.492188 12.925781 -19.222656 13.65625 -18.890625 C 14.382812 -18.554688 15.035156 -18.191406 15.609375 -17.796875 Z M 13.90625 -14.65625 "/></g></g><g style="fill:#000000;fill-opacity:1;"><g transform="translate(64.707372, 42.395481)"><path style="stroke:none" d="M 15.328125 0 L 11.578125 0 L 11.578125 -8.234375 C 11.578125 -9.367188 11.359375 -10.210938 10.921875 -10.765625 C 10.484375 -11.328125 9.882812 -11.609375 9.125 -11.609375 C 8.675781 -11.609375 8.195312 -11.476562 7.6875 -11.21875 C 7.1875 -10.957031 6.734375 -10.597656 6.328125 -10.140625 C 5.929688 -9.679688 5.640625 -9.15625 5.453125 -8.5625 L 5.453125 0 L 1.703125 0 L 1.703125 -20.421875 L 5.453125 -20.421875 L 5.453125 -11.953125 C 5.992188 -12.878906 6.726562 -13.601562 7.65625 -14.125 C 8.59375 -14.65625 9.613281 -14.921875 10.71875 -14.921875 C 11.664062 -14.921875 12.4375 -14.753906 13.03125 -14.421875 C 13.632812 -14.097656 14.101562 -13.660156 14.4375 -13.109375 C 14.769531 -12.554688 15 -11.941406 15.125 -11.265625 C 15.257812 -10.585938 15.328125 -9.882812 15.328125 -9.15625 Z M 15.328125 0 "/></g></g><g style="fill:#000000;fill-opacity:1;"><g transform="translate(81.330557, 42.395481)"><path style="stroke:none" d="M 8.484375 0.28125 C 7.285156 0.28125 6.207031 0.0820312 5.25 -0.3125 C 4.300781 -0.71875 3.492188 -1.273438 2.828125 -1.984375 C 2.171875 -2.691406 1.664062 -3.503906 1.3125 -4.421875 C 0.957031 -5.335938 0.78125 -6.296875 0.78125 -7.296875 C 0.78125 -8.328125 0.957031 -9.296875 1.3125 -10.203125 C 1.664062 -11.117188 2.171875 -11.929688 2.828125 -12.640625 C 3.492188 -13.359375 4.300781 -13.914062 5.25 -14.3125 C 6.207031 -14.71875 7.285156 -14.921875 8.484375 -14.921875 C 9.671875 -14.921875 10.734375 -14.71875 11.671875 -14.3125 C 12.617188 -13.914062 13.425781 -13.359375 14.09375 -12.640625 C 14.769531 -11.929688 15.28125 -11.117188 15.625 -10.203125 C 15.96875 -9.296875 16.140625 -8.328125 16.140625 -7.296875 C 16.140625 -6.296875 15.96875 -5.335938 15.625 -4.421875 C 15.28125 -3.503906 14.773438 -2.691406 14.109375 -1.984375 C 13.453125 -1.273438 12.644531 -0.71875 11.6875 -0.3125 C 10.738281 0.0820312 9.671875 0.28125 8.484375 0.28125 Z M 4.640625 -7.296875 C 4.640625 -6.441406 4.804688 -5.679688 5.140625 -5.015625 C 5.484375 -4.359375 5.941406 -3.84375 6.515625 -3.46875 C 7.097656 -3.09375 7.753906 -2.90625 8.484375 -2.90625 C 9.191406 -2.90625 9.832031 -3.097656 10.40625 -3.484375 C 10.988281 -3.867188 11.453125 -4.390625 11.796875 -5.046875 C 12.140625 -5.710938 12.3125 -6.472656 12.3125 -7.328125 C 12.3125 -8.171875 12.140625 -8.925781 11.796875 -9.59375 C 11.453125 -10.269531 10.988281 -10.789062 10.40625 -11.15625 C 9.832031 -11.53125 9.191406 -11.71875 8.484375 -11.71875 C 7.753906 -11.71875 7.097656 -11.523438 6.515625 -11.140625 C 5.941406 -10.765625 5.484375 -10.242188 5.140625 -9.578125 C 4.804688 -8.921875 4.640625 -8.160156 4.640625 -7.296875 Z M 4.640625 -7.296875 "/></g></g><g style="fill:#000000;fill-opacity:1;"><g transform="translate(98.009715, 42.395481)"><path style="stroke:none" d="M 10.5 0.28125 C 9.351562 0.28125 8.347656 0.0234375 7.484375 -0.484375 C 6.617188 -1.003906 5.941406 -1.703125 5.453125 -2.578125 L 5.453125 5.953125 L 1.703125 5.953125 L 1.703125 -14.65625 L 4.984375 -14.65625 L 4.984375 -12.140625 C 5.546875 -13.003906 6.253906 -13.679688 7.109375 -14.171875 C 7.960938 -14.671875 8.941406 -14.921875 10.046875 -14.921875 C 11.035156 -14.921875 11.941406 -14.722656 12.765625 -14.328125 C 13.597656 -13.929688 14.320312 -13.382812 14.9375 -12.6875 C 15.550781 -11.988281 16.03125 -11.1875 16.375 -10.28125 C 16.726562 -9.375 16.90625 -8.398438 16.90625 -7.359375 C 16.90625 -5.941406 16.628906 -4.65625 16.078125 -3.5 C 15.523438 -2.34375 14.769531 -1.421875 13.8125 -0.734375 C 12.851562 -0.0546875 11.75 0.28125 10.5 0.28125 Z M 9.234375 -2.90625 C 9.816406 -2.90625 10.335938 -3.023438 10.796875 -3.265625 C 11.265625 -3.515625 11.671875 -3.847656 12.015625 -4.265625 C 12.359375 -4.679688 12.617188 -5.15625 12.796875 -5.6875 C 12.972656 -6.226562 13.0625 -6.785156 13.0625 -7.359375 C 13.0625 -7.972656 12.960938 -8.539062 12.765625 -9.0625 C 12.578125 -9.582031 12.296875 -10.039062 11.921875 -10.4375 C 11.546875 -10.84375 11.109375 -11.15625 10.609375 -11.375 C 10.117188 -11.601562 9.585938 -11.71875 9.015625 -11.71875 C 8.660156 -11.71875 8.300781 -11.65625 7.9375 -11.53125 C 7.570312 -11.414062 7.21875 -11.242188 6.875 -11.015625 C 6.539062 -10.796875 6.25 -10.535156 6 -10.234375 C 5.75 -9.941406 5.566406 -9.617188 5.453125 -9.265625 L 5.453125 -5.828125 C 5.679688 -5.285156 5.984375 -4.789062 6.359375 -4.34375 C 6.742188 -3.894531 7.1875 -3.539062 7.6875 -3.28125 C 8.195312 -3.03125 8.710938 -2.90625 9.234375 -2.90625 Z M 9.234375 -2.90625 "/></g></g><g style="fill:#000000;fill-opacity:1;"><g transform="translate(115.472458, 42.395481)"><path style="stroke:none" d="M 1.703125 0 L 1.703125 -14.65625 L 5.453125 -14.65625 L 5.453125 0 Z M 1.703125 -16.703125 L 1.703125 -20.421875 L 5.453125 -20.421875 L 5.453125 -16.703125 Z M 1.703125 -16.703125 "/></g></g><g style="fill:#000000;fill-opacity:1;"><g transform="translate(122.332151, 42.395481)"><path style="stroke:none" d="M 2.484375 0 L 2.484375 -19.875 L 15.53125 -19.875 L 15.53125 -18.140625 L 4.453125 -18.140625 L 4.453125 -10.828125 L 13.796875 -10.828125 L 13.796875 -9.203125 L 4.453125 -9.203125 L 4.453125 0 Z M 2.484375 0 "/></g></g><g style="fill:#000000;fill-opacity:1;"><g transform="translate(137.472036, 42.395481)"><path style="stroke:none" d="M 9.375 -12.90625 C 8.101562 -12.863281 6.988281 -12.503906 6.03125 -11.828125 C 5.070312 -11.160156 4.394531 -10.238281 4 -9.0625 L 4 0 L 2.09375 0 L 2.09375 -14.578125 L 3.890625 -14.578125 L 3.890625 -11.078125 C 4.390625 -12.109375 5.054688 -12.941406 5.890625 -13.578125 C 6.722656 -14.210938 7.601562 -14.566406 8.53125 -14.640625 C 8.71875 -14.648438 8.878906 -14.65625 9.015625 -14.65625 C 9.160156 -14.65625 9.28125 -14.648438 9.375 -14.640625 Z M 9.375 -12.90625 "/></g></g><g style="fill:#000000;fill-opacity:1;"><g transform="translate(146.567157, 42.395481)"><path style="stroke:none" d="M 8.390625 0.28125 C 7.347656 0.28125 6.378906 0.0820312 5.484375 -0.3125 C 4.585938 -0.71875 3.8125 -1.269531 3.15625 -1.96875 C 2.507812 -2.664062 2.003906 -3.472656 1.640625 -4.390625 C 1.273438 -5.304688 1.09375 -6.285156 1.09375 -7.328125 C 1.09375 -8.691406 1.40625 -9.941406 2.03125 -11.078125 C 2.65625 -12.210938 3.515625 -13.117188 4.609375 -13.796875 C 5.710938 -14.484375 6.96875 -14.828125 8.375 -14.828125 C 9.800781 -14.828125 11.050781 -14.484375 12.125 -13.796875 C 13.195312 -13.109375 14.039062 -12.195312 14.65625 -11.0625 C 15.28125 -9.9375 15.59375 -8.703125 15.59375 -7.359375 C 15.59375 -7.210938 15.59375 -7.066406 15.59375 -6.921875 C 15.59375 -6.785156 15.582031 -6.679688 15.5625 -6.609375 L 3.078125 -6.609375 C 3.171875 -5.554688 3.460938 -4.625 3.953125 -3.8125 C 4.453125 -3.007812 5.097656 -2.367188 5.890625 -1.890625 C 6.679688 -1.410156 7.546875 -1.171875 8.484375 -1.171875 C 9.429688 -1.171875 10.328125 -1.410156 11.171875 -1.890625 C 12.023438 -2.378906 12.617188 -3.019531 12.953125 -3.8125 L 14.609375 -3.359375 C 14.304688 -2.671875 13.847656 -2.046875 13.234375 -1.484375 C 12.617188 -0.921875 11.894531 -0.484375 11.0625 -0.171875 C 10.238281 0.128906 9.347656 0.28125 8.390625 0.28125 Z M 3.015625 -7.96875 L 13.796875 -7.96875 C 13.722656 -9.039062 13.4375 -9.976562 12.9375 -10.78125 C 12.445312 -11.582031 11.804688 -12.207031 11.015625 -12.65625 C 10.222656 -13.113281 9.347656 -13.34375 8.390625 -13.34375 C 7.441406 -13.34375 6.578125 -13.113281 5.796875 -12.65625 C 5.015625 -12.207031 4.375 -11.578125 3.875 -10.765625 C 3.382812 -9.953125 3.097656 -9.019531 3.015625 -7.96875 Z M 3.015625 -7.96875 "/></g></g><g style="fill:#000000;fill-opacity:1;"><g transform="translate(162.714596, 42.395481)"><path style="stroke:none" d="M 8.390625 0.28125 C 7.347656 0.28125 6.378906 0.0820312 5.484375 -0.3125 C 4.585938 -0.71875 3.8125 -1.269531 3.15625 -1.96875 C 2.507812 -2.664062 2.003906 -3.472656 1.640625 -4.390625 C 1.273438 -5.304688 1.09375 -6.285156 1.09375 -7.328125 C 1.09375 -8.691406 1.40625 -9.941406 2.03125 -11.078125 C 2.65625 -12.210938 3.515625 -13.117188 4.609375 -13.796875 C 5.710938 -14.484375 6.96875 -14.828125 8.375 -14.828125 C 9.800781 -14.828125 11.050781 -14.484375 12.125 -13.796875 C 13.195312 -13.109375 14.039062 -12.195312 14.65625 -11.0625 C 15.28125 -9.9375 15.59375 -8.703125 15.59375 -7.359375 C 15.59375 -7.210938 15.59375 -7.066406 15.59375 -6.921875 C 15.59375 -6.785156 15.582031 -6.679688 15.5625 -6.609375 L 3.078125 -6.609375 C 3.171875 -5.554688 3.460938 -4.625 3.953125 -3.8125 C 4.453125 -3.007812 5.097656 -2.367188 5.890625 -1.890625 C 6.679688 -1.410156 7.546875 -1.171875 8.484375 -1.171875 C 9.429688 -1.171875 10.328125 -1.410156 11.171875 -1.890625 C 12.023438 -2.378906 12.617188 -3.019531 12.953125 -3.8125 L 14.609375 -3.359375 C 14.304688 -2.671875 13.847656 -2.046875 13.234375 -1.484375 C 12.617188 -0.921875 11.894531 -0.484375 11.0625 -0.171875 C 10.238281 0.128906 9.347656 0.28125 8.390625 0.28125 Z M 3.015625 -7.96875 L 13.796875 -7.96875 C 13.722656 -9.039062 13.4375 -9.976562 12.9375 -10.78125 C 12.445312 -11.582031 11.804688 -12.207031 11.015625 -12.65625 C 10.222656 -13.113281 9.347656 -13.34375 8.390625 -13.34375 C 7.441406 -13.34375 6.578125 -13.113281 5.796875 -12.65625 C 5.015625 -12.207031 4.375 -11.578125 3.875 -10.765625 C 3.382812 -9.953125 3.097656 -9.019531 3.015625 -7.96875 Z M 3.015625 -7.96875 "/></g></g></g></svg>