<svg width="600" height="400" viewBox="0 0 600 400" xmlns="http://www.w3.org/2000/svg">
  <defs>
    <linearGradient id="bg" x1="0%" y1="0%" x2="100%" y2="100%">
      <stop offset="0%" style="stop-color:#FEF3C7;stop-opacity:1" />
      <stop offset="100%" style="stop-color:#FDE68A;stop-opacity:1" />
    </linearGradient>
  </defs>
  
  <!-- Background -->
  <rect width="600" height="400" fill="url(#bg)"/>
  
  <!-- Main container -->
  <rect x="50" y="40" width="500" height="320" rx="12" fill="#FFFFFF" stroke="#F59E0B" stroke-width="2"/>
  
  <!-- Header with pet theme -->
  <rect x="70" y="60" width="460" height="50" rx="8" fill="#F59E0B"/>
  <circle cx="100" cy="85" r="15" fill="#FFFFFF"/>
  <path d="M95 80 Q100 75 105 80 Q100 88 95 80" fill="#F59E0B"/>
  <rect x="130" y="75" width="120" height="20" rx="4" fill="#FFFFFF"/>
  
  <!-- Pet icons -->
  <circle cx="450" cy="85" r="12" fill="#FFFFFF"/>
  <path d="M445 85 Q450 80 455 85 Q450 92 445 85" fill="#F59E0B"/>
  <circle cx="480" cy="85" r="12" fill="#FFFFFF"/>
  <path d="M475 85 Q480 80 485 85 Q480 92 475 85" fill="#F59E0B"/>
  
  <!-- Product grid with pet theme -->
  <rect x="70" y="130" width="140" height="100" rx="8" fill="#FEF3C7" stroke="#F59E0B" stroke-width="1"/>
  <rect x="230" y="130" width="140" height="100" rx="8" fill="#FEF3C7" stroke="#F59E0B" stroke-width="1"/>
  <rect x="390" y="130" width="140" height="100" rx="8" fill="#FEF3C7" stroke="#F59E0B" stroke-width="1"/>
  
  <!-- Product images -->
  <rect x="80" y="140" width="120" height="60" rx="4" fill="#F3F4F6"/>
  <circle cx="140" cy="170" r="20" fill="#F59E0B"/>
  <path d="M135 170 Q140 165 145 170 Q140 178 135 170" fill="#FFFFFF"/>
  
  <rect x="240" y="140" width="120" height="60" rx="4" fill="#F3F4F6"/>
  <circle cx="300" cy="170" r="20" fill="#10B981"/>
  <path d="M295 170 Q300 165 305 170 Q300 178 295 170" fill="#FFFFFF"/>
  
  <rect x="400" y="140" width="120" height="60" rx="4" fill="#F3F4F6"/>
  <circle cx="460" cy="170" r="20" fill="#EF4444"/>
  <path d="M455 170 Q460 165 465 170 Q460 178 455 170" fill="#FFFFFF"/>
  
  <!-- Product names -->
  <rect x="80" y="205" width="80" height="8" rx="2" fill="#92400E"/>
  <rect x="80" y="218" width="60" height="6" rx="2" fill="#B45309"/>
  
  <rect x="240" y="205" width="80" height="8" rx="2" fill="#92400E"/>
  <rect x="240" y="218" width="60" height="6" rx="2" fill="#B45309"/>
  
  <rect x="400" y="205" width="80" height="8" rx="2" fill="#92400E"/>
  <rect x="400" y="218" width="60" height="6" rx="2" fill="#B45309"/>
  
  <!-- Bottom section -->
  <rect x="70" y="250" width="460" height="80" rx="8" fill="#FEF3C7"/>
  <rect x="90" y="270" width="200" height="12" rx="2" fill="#92400E"/>
  <rect x="90" y="290" width="150" height="8" rx="2" fill="#B45309"/>
  
  <!-- Decorative paw prints -->
  <circle cx="450" cy="280" r="8" fill="#F59E0B"/>
  <circle cx="445" cy="275" r="3" fill="#F59E0B"/>
  <circle cx="455" cy="275" r="3" fill="#F59E0B"/>
  <circle cx="445" cy="285" r="3" fill="#F59E0B"/>
  <circle cx="455" cy="285" r="3" fill="#F59E0B"/>
  
  <!-- Title -->
  <text x="300" y="380" text-anchor="middle" fill="#92400E" font-family="Arial, sans-serif" font-size="18" font-weight="bold">Pet Friendly</text>
</svg> 