<svg width="600" height="400" viewBox="0 0 600 400" xmlns="http://www.w3.org/2000/svg">
  <defs>
    <linearGradient id="bg" x1="0%" y1="0%" x2="100%" y2="100%">
      <stop offset="0%" style="stop-color:#F8FAFC;stop-opacity:1" />
      <stop offset="100%" style="stop-color:#E2E8F0;stop-opacity:1" />
    </linearGradient>
  </defs>
  
  <!-- Background -->
  <rect width="600" height="400" fill="url(#bg)"/>
  
  <!-- Container -->
  <rect x="100" y="100" width="400" height="200" rx="8" fill="#FFFFFF" stroke="#CBD5E1" stroke-width="2"/>
  
  <!-- Icon -->
  <circle cx="300" cy="170" r="30" fill="#E2E8F0"/>
  <svg x="280" y="150" width="40" height="40" fill="#94A3B8" viewBox="0 0 24 24">
    <path d="M4 16l4.586-4.586a2 2 0 012.828 0L16 16m-2-2l1.586-1.586a2 2 0 012.828 0L20 14m-6-6h.01M6 20h12a2 2 0 002-2V6a2 2 0 00-2-2H6a2 2 0 00-2 2v14a2 2 0 002 2z"/>
  </svg>
  
  <!-- Text -->
  <text x="300" y="230" text-anchor="middle" fill="#64748B" font-family="Arial, sans-serif" font-size="14">Vista previa no disponible</text>
  <text x="300" y="250" text-anchor="middle" fill="#94A3B8" font-family="Arial, sans-serif" font-size="12">Tema personalizado</text>
  
  <!-- Title -->
  <text x="300" y="350" text-anchor="middle" fill="#475569" font-family="Arial, sans-serif" font-size="16" font-weight="500">Tema Personalizado</text>
</svg> 